<?xml version="1.0" encoding="UTF-8"?>
<svg width="1600px" height="316px" viewBox="0 0 1600 316" version="1.1" xmlns="http://www.w3.org/2000/svg" xmlns:xlink="http://www.w3.org/1999/xlink">
    <!-- Generator: Sketch 53.2 (72643) - https://sketchapp.com -->
    <title>logo_Simundia</title>
    <desc>Created with Sketch.</desc>
    <g id="logo" stroke="none" stroke-width="1" fill="none" fill-rule="evenodd">
        <g id="Artboard" transform="translate(-45.000000, -37.000000)">
            <g id="logo/normal" transform="translate(45.000000, 37.000000)">
                <g id="V2-logo-1-Copy">
                    <path d="M427.73,268.36 C413.776667,264.306667 402.573333,259.04 394.12,252.56 L409,219.62 C417.797262,225.913459 427.552733,230.745608 437.89,233.93 C448.696868,237.478274 459.995564,239.300644 471.37,239.33 C483.79,239.33 492.97,237.486667 498.91,233.8 C504.85,230.113333 507.82,225.206667 507.82,219.08 C507.888052,214.732968 505.942696,210.598626 502.55,207.88 C498.550697,204.649837 493.967451,202.219019 489.05,200.72 C483.556667,198.933333 476.133333,196.953333 466.78,194.78 C454.793437,192.078138 442.981757,188.651849 431.41,184.52 C422.261317,181.128011 414.12851,175.459482 407.78,168.05 C401.206667,160.49 397.923333,150.41 397.93,137.81 C397.817784,127.205438 400.913098,116.814526 406.81,108 C412.75,99.0866667 421.703333,92.02 433.67,86.8 C445.636667,81.58 460.263333,78.98 477.55,79 C489.4723,78.9881524 501.351026,80.4389892 512.92,83.32 C523.587781,85.8521865 533.791973,90.0431938 543.16,95.74 L529.66,128.95 C512.2,119.056667 494.74,114.106667 477.28,114.1 C465.04,114.1 455.993333,116.08 450.14,120.04 C444.286667,124 441.363333,129.22 441.37,135.7 C441.37,142.18 444.743333,146.996667 451.49,150.15 C458.236667,153.303333 468.543333,156.406667 482.41,159.46 C494.391737,162.180572 506.202307,165.606539 517.78,169.72 C526.871148,173.08501 534.986459,178.650973 541.4,185.92 C547.973333,193.306667 551.26,203.306667 551.26,215.92 C551.350063,226.464466 548.20928,236.783683 542.26,245.49 C536.26,254.396667 527.216667,261.46 515.13,266.68 C503.043333,271.9 488.376667,274.51 471.13,274.51 C456.444732,274.530721 441.831351,272.459931 427.73,268.36 Z" id="Path" fill="#091E53"></path>
                    <path d="M564.21,98.93 C559.454436,94.6805655 556.791753,88.5662553 556.92,82.19 C556.799806,75.8153404 559.46109,69.7042432 564.21,65.45 C569.07,60.9633333 575.37,58.7133333 583.11,58.7 C590.85,58.6866667 597.146667,60.8466667 602,65.18 C606.732075,69.2168082 609.407008,75.1611046 609.29,81.38 C609.473488,87.9639546 606.818125,94.3091432 602,98.8 C597.14,103.393333 590.84,105.686667 583.1,105.68 C575.36,105.673333 569.063333,103.423333 564.21,98.93 Z M562.05,125.93 L604.17,125.93 L604.17,271.19 L562.05,271.19 L562.05,125.93 Z" id="Shape" fill="#091E53"></path>
                    <path d="M856.49,139.84 C867.19,150.553333 872.543333,166.616667 872.55,188.03 L872.55,271.19 L830.43,271.19 L830.43,194.51 C830.43,183.003333 828.046667,174.41 823.28,168.73 C818.513333,163.05 811.716667,160.213333 802.89,160.22 C792.99,160.22 785.16,163.416667 779.4,169.81 C773.64,176.203333 770.76,185.696667 770.76,198.29 L770.76,271.19 L728.64,271.19 L728.64,194.51 C728.64,171.663333 719.46,160.233333 701.1,160.22 C691.38,160.22 683.64,163.416667 677.88,169.81 C672.12,176.203333 669.24,185.696667 669.24,198.29 L669.24,271.19 L627.12,271.19 L627.12,125.93 L667.35,125.93 L667.35,142.67 C672.80069,136.537464 679.59381,131.746346 687.2,128.67 C695.390837,125.344871 704.160426,123.679329 713,123.77 C722.614454,123.628673 732.13169,125.709392 740.81,129.85 C748.975401,133.792402 755.895668,139.909918 760.81,147.53 C766.786268,139.953269 774.510154,133.938177 783.32,130 C792.699024,125.802642 802.875143,123.684181 813.15,123.79 C831.33,123.776667 845.776667,129.126667 856.49,139.84 Z" id="Path" fill="#091E53"></path>
                    <path d="M1040.49,125.93 L1040.49,271.19 L1000.49,271.19 L1000.49,253.91 C994.986044,260.159746 988.152084,265.097283 980.49,268.36 C972.551728,271.731899 964.004408,273.433874 955.38,273.36 C936.3,273.36 921.18,267.87 910.02,256.89 C898.86,245.91 893.3,229.613333 893.34,208 L893.339786,125.93 L935.46,125.93 L935.46,201.8 C935.46,225.2 945.27,236.9 964.89,236.9 C974.97,236.9 983.07,233.616667 989.19,227.05 C995.31,220.483333 998.37,210.716667 998.37,197.75 L998.37,125.93 L1040.49,125.93 Z" id="Path" fill="#091E53"></path>
                    <path d="M1195.34,140 C1206.41333,150.8 1211.94667,166.82 1211.94,188.06 L1211.94001,271.22 L1169.82,271.22 L1169.82,194.51 C1169.82,183.003333 1167.3,174.41 1162.26,168.73 C1157.22,163.05 1149.93,160.213333 1140.39,160.22 C1129.77,160.22 1121.31,163.506667 1115.01,170.08 C1108.71,176.653333 1105.56,186.416667 1105.56,199.37 L1105.56,271.19 L1063.44,271.19 L1063.44,125.93 L1103.67,125.93 L1103.67,142.93 C1109.43551,136.690897 1116.54492,131.845281 1124.46,128.76 C1133.14331,125.35317 1142.40287,123.655415 1151.73,123.76 C1169.73,123.766667 1184.26667,129.18 1195.34,140 Z" id="Path" fill="#091E53"></path>
                    <path d="M1383.39,70.85 L1383.39,271.19 L1343.16,271.19 L1343.16,254.45 C1332.72,267.063333 1317.6,273.363333 1297.8,273.35 C1284.83972,273.534894 1272.05094,270.373002 1260.67,264.17 C1249.66173,258.118612 1240.62073,249.035964 1234.62,238 C1228.32,226.666667 1225.17,213.526667 1225.17,198.58 C1225.17,183.633333 1228.32,170.493333 1234.62,159.16 C1240.62815,148.13212 1249.66753,139.054562 1260.67,133 C1272.05455,126.806305 1284.84086,123.645025 1297.8,123.82 C1316.34,123.82 1330.83,129.67 1341.27,141.37 L1341.27,70.85 L1383.39,70.85 Z M1331.55,227.85 C1338.57,220.556667 1342.08,210.79 1342.08,198.55 C1342.08,186.31 1338.57,176.546667 1331.55,169.26 C1324.53,161.966667 1315.71,158.32 1305.09,158.32 C1294.29,158.32 1285.38,161.966667 1278.36,169.26 C1271.34,176.553333 1267.83,186.316667 1267.83,198.55 C1267.83,210.803333 1271.34,220.57 1278.36,227.85 C1285.38,235.13 1294.29,238.773333 1305.09,238.78 C1315.69667,238.786667 1324.51667,235.146667 1331.55,227.86 L1331.55,227.85 Z" id="Shape" fill="#091E53"></path>
                    <polygon id="Path" fill="#091E53" points="1406.06 125.93 1448.18 125.93 1448.18 271.19 1406.06 271.19"></polygon>
                    <path d="M1581.56,139.84 C1593.62,150.553333 1599.65,166.706667 1599.65,188.3 L1599.65,271.19 L1560.23,271.19 L1560.23,253.1 C1552.31,266.6 1537.55,273.35 1515.95,273.35 C1504.79,273.35 1495.12333,271.46 1486.95,267.68 C1478.77667,263.9 1472.51333,258.673333 1468.16,252 C1463.80919,245.245118 1461.55453,237.353818 1461.68,229.32 C1461.68,215.82 1466.76667,205.2 1476.94,197.46 C1487.11333,189.72 1502.81667,185.85 1524.05,185.85 L1557.53,185.85 C1557.53,176.67 1554.74,169.606667 1549.16,164.66 C1543.58,159.713333 1535.21,157.236667 1524.05,157.23 C1516.30147,157.232565 1508.60242,158.464548 1501.24,160.88 C1494.37238,163.00994 1487.9387,166.345293 1482.24,170.73 L1467.12,141.3 C1475.80112,135.365331 1485.43825,130.967902 1495.61,128.3 C1506.73443,125.237816 1518.22182,123.69383 1529.76,123.71 C1552.23333,123.75 1569.5,129.126667 1581.56,139.84 Z M1545.65,240 C1551.23533,236.663191 1555.44762,231.443922 1557.53,225.28 L1557.53,210.44 L1528.64,210.44 C1511.36,210.44 1502.72,216.106667 1502.72,227.44 C1502.55703,232.509669 1504.94027,237.324937 1509.07,240.27 C1513.29,243.416667 1519.09333,244.99 1526.48,244.99 C1533.20671,245.116238 1539.83856,243.389949 1545.65,240 L1545.65,240 Z" id="Shape" fill="#091E53"></path>
                    <path d="M1406.06,99.67 L1406.06,79.76 C1406.06,71.2420251 1411.1911,63.5627849 1419.06069,60.303097 C1426.93027,57.0434092 1435.98855,58.8452134 1442.01167,64.8683312 C1448.03479,70.891449 1449.83659,79.9497304 1446.5769,87.8193131 C1443.31722,95.6888957 1435.63797,100.82 1427.12,100.82 L1407.21,100.82 C1406.905,100.82 1406.61249,100.69884 1406.39683,100.483173 C1406.18116,100.267506 1406.06,99.974999 1406.06,99.67 L1406.06,99.67 Z" id="Path" fill="#ED6E6E"></path>
                    <g id="symbole-copy">
                        <path d="M315.79,308.29 L315.79,178.35 C315.79,102.443984 254.256016,40.91 178.35,40.91 C102.443984,40.91 40.91,102.443984 40.91,178.35 C40.91,254.256016 102.443984,315.79 178.35,315.79 L308.29,315.79 C312.432136,315.79 315.79,312.432136 315.79,308.29 Z" id="Path" fill="#1751DE"></path>
                        <path d="M274.88,267.38 L274.88,137.44 C274.88,61.533984 213.346016,4.64790298e-15 137.44,0 C61.533984,-4.64790298e-15 9.29580596e-15,61.533984 0,137.44 C-9.29580596e-15,213.346016 61.533984,274.88 137.44,274.88 L267.38,274.88 C269.369938,274.882659 271.279137,274.093336 272.686236,272.686236 C274.093336,271.279137 274.882659,269.369938 274.88,267.38 Z" id="Path" fill="#F9D769"></path>
                        <path d="M267.38,274.88 C269.366472,274.882654 271.272637,274.096075 272.679161,272.693303 C274.085684,271.29053 274.87735,269.386472 274.88,267.4 L274.88,137.4 C274.913418,110.941807 267.2713,85.0419722 252.88,62.84 C198.478771,27.7689363 126.980872,35.4042866 81.2125791,81.1725791 C35.4442866,126.940872 27.8089363,198.438771 62.88,252.84 C85.0819722,267.2313 110.981807,274.873418 137.44,274.84 L267.38,274.88 Z" id="Path" fill="#87D4BD" fill-rule="nonzero"></path>
                    </g>
                </g>
            </g>
        </g>
    </g>
</svg>